<svg width="317" height="58" viewBox="0 0 317 58" fill="none" xmlns="http://www.w3.org/2000/svg">
<path d="M68.0278 32.3154L76.032 14.6259H78.7419L86.8465 32.3154H83.5595L81.4016 27.3473L82.7064 28.2255H72.0927L73.4476 27.3473L71.2897 32.3154H68.0278ZM77.3619 18.0885L73.824 26.4691L73.1716 25.6913H81.6023L81.0754 26.4691L77.4622 18.0885H77.3619ZM95.6891 32.3154V14.6259H98.8757V22.1534H101.887L101.234 22.5799L106.453 14.6259H110.016L104.195 23.1821L102.966 22.2788C104.103 22.4461 105.048 22.8392 105.801 23.4581C106.57 24.0603 107.24 24.9134 107.808 26.0175L110.945 32.3154H107.457L105.023 27.2219C104.605 26.3353 104.103 25.708 103.518 25.34C102.949 24.972 102.221 24.788 101.335 24.788H98.8757V32.3154H95.6891ZM118.463 32.5663C117.158 32.5663 116.029 32.2987 115.075 31.7634C114.122 31.2281 113.377 30.467 112.842 29.4801C112.324 28.4932 112.064 27.3222 112.064 25.9673C112.064 24.6123 112.324 23.4498 112.842 22.4796C113.377 21.4926 114.122 20.7315 115.075 20.1962C116.029 19.6609 117.158 19.3933 118.463 19.3933C119.767 19.3933 120.896 19.6609 121.85 20.1962C122.82 20.7315 123.565 21.4926 124.083 22.4796C124.618 23.4498 124.886 24.6123 124.886 25.9673C124.886 27.3222 124.618 28.4932 124.083 29.4801C123.565 30.467 122.82 31.2281 121.85 31.7634C120.896 32.2987 119.767 32.5663 118.463 32.5663ZM118.463 30.1576C119.449 30.1576 120.236 29.8146 120.821 29.1288C121.407 28.4262 121.699 27.3724 121.699 25.9673C121.699 24.5622 121.407 23.5167 120.821 22.8308C120.236 22.145 119.449 21.8021 118.463 21.8021C117.476 21.8021 116.689 22.145 116.104 22.8308C115.518 23.5167 115.226 24.5622 115.226 25.9673C115.226 27.3724 115.518 28.4262 116.104 29.1288C116.689 29.8146 117.476 30.1576 118.463 30.1576ZM127.958 37.7352V22.8057C127.958 22.2872 127.942 21.7603 127.908 21.225C127.875 20.6897 127.825 20.1628 127.758 19.6442H130.794L131.07 22.3039H130.794C131.045 21.4173 131.572 20.7148 132.374 20.1962C133.194 19.6609 134.139 19.3933 135.21 19.3933C136.331 19.3933 137.309 19.6609 138.145 20.1962C138.982 20.7148 139.634 21.4675 140.103 22.4545C140.571 23.4247 140.805 24.5956 140.805 25.9673C140.805 27.3389 140.571 28.5182 140.103 29.5052C139.634 30.4921 138.982 31.2532 138.145 31.7885C137.309 32.3071 136.331 32.5663 135.21 32.5663C134.156 32.5663 133.228 32.3071 132.425 31.7885C131.622 31.2699 131.086 30.5758 130.819 29.7059H131.095V37.7352H127.958ZM134.332 30.1576C135.335 30.1576 136.138 29.8146 136.74 29.1288C137.343 28.4262 137.644 27.3724 137.644 25.9673C137.644 24.5622 137.343 23.5167 136.74 22.8308C136.138 22.145 135.335 21.8021 134.332 21.8021C133.345 21.8021 132.55 22.145 131.948 22.8308C131.346 23.5167 131.045 24.5622 131.045 25.9673C131.045 27.3724 131.346 28.4262 131.948 29.1288C132.55 29.8146 133.345 30.1576 134.332 30.1576ZM146.496 32.3154V22.1032H142.155V19.6442H153.973V22.1032H149.607V32.3154H146.496Z" fill="#1E1E1E"/>
<path d="M161.671 35.5773V29.9317H163.126C163.628 29.1455 163.988 28.2255 164.205 27.1717C164.439 26.1011 164.556 24.7963 164.556 23.2574V19.6442H174.317V29.9317H176.374V35.5773H173.715V32.3154H164.33V35.5773H161.671ZM165.936 29.9568H171.381V22.0028H167.216V23.96C167.216 25.0807 167.107 26.1764 166.89 27.2469C166.672 28.3175 166.354 29.2208 165.936 29.9568ZM178.352 32.6667L177.373 30.2077C177.925 30.007 178.385 29.7477 178.753 29.4299C179.138 29.0954 179.439 28.6772 179.657 28.1753C179.891 27.6568 180.058 27.0211 180.158 26.2684C180.259 25.4989 180.309 24.5872 180.309 23.5334V19.6442H190.396V32.3154H187.284V22.053H183.169V23.6338C183.169 25.4571 183.002 26.9877 182.668 28.2255C182.333 29.4466 181.815 30.4168 181.112 31.1361C180.409 31.8554 179.489 32.3656 178.352 32.6667ZM192.914 32.3154L194.846 28.9783C195.181 28.4095 195.591 27.9579 196.076 27.6233C196.578 27.272 197.096 27.0964 197.632 27.0964H198.184L198.159 27.3724C196.67 27.3724 195.524 27.0462 194.721 26.3938C193.918 25.7415 193.517 24.788 193.517 23.5334C193.517 22.2956 193.926 21.3421 194.746 20.673C195.582 19.9871 196.804 19.6442 198.409 19.6442H204.707V32.3154H201.847V27.8491H200.417C199.898 27.8491 199.438 27.9913 199.037 28.2757C198.652 28.5601 198.326 28.9281 198.058 29.3797L196.402 32.3154H192.914ZM199.012 25.8167H201.847V21.6766H199.012C198.159 21.6766 197.515 21.8606 197.08 22.2286C196.661 22.5966 196.452 23.0985 196.452 23.7341C196.452 24.4032 196.661 24.9218 197.08 25.2898C197.515 25.6411 198.159 25.8167 199.012 25.8167ZM221.11 32.5663C219.12 32.5663 217.531 31.9641 216.343 30.7598C215.172 29.5554 214.587 27.7906 214.587 25.4654V23.3076C214.587 20.9155 215.13 18.9918 216.218 17.5365C217.305 16.0812 218.944 15.1194 221.135 14.651L225.777 13.5972L226.631 16.0561L221.411 17.2103C220.542 17.3943 219.822 17.7456 219.254 18.2642C218.685 18.766 218.258 19.3682 217.974 20.0708C217.69 20.7733 217.547 21.5261 217.547 22.329V23.6589H217.121C217.305 22.9061 217.614 22.2537 218.049 21.7017C218.484 21.133 219.036 20.6897 219.705 20.3719C220.374 20.054 221.135 19.8951 221.989 19.8951C223.059 19.8951 223.996 20.146 224.799 20.6479C225.618 21.133 226.263 21.8439 226.731 22.7807C227.199 23.7007 227.433 24.8047 227.433 26.0927C227.433 27.4142 227.166 28.5601 226.631 29.5303C226.112 30.5005 225.376 31.2532 224.422 31.7885C223.486 32.3071 222.382 32.5663 221.11 32.5663ZM221.01 30.1827C222.047 30.1827 222.85 29.8565 223.419 29.2041C224.004 28.535 224.297 27.5397 224.297 26.2182C224.297 24.9302 224.004 23.9516 223.419 23.2825C222.833 22.5966 222.03 22.2537 221.01 22.2537C219.99 22.2537 219.187 22.5883 218.601 23.2574C218.016 23.9265 217.723 24.88 217.723 26.1178C217.723 27.4728 218.016 28.4932 218.601 29.179C219.187 29.8481 219.99 30.1827 221.01 30.1827ZM230.405 32.3154V19.6442H233.24V29.2292H232.487L239.689 19.6442H242.273V32.3154H239.438V22.7054H240.216L232.989 32.3154H230.405ZM250.509 32.5663C249.372 32.5663 248.301 32.4325 247.297 32.1649C246.31 31.8972 245.482 31.5125 244.813 31.0107L245.691 28.9532C246.31 29.4048 247.03 29.7477 247.849 29.9819C248.686 30.2161 249.564 30.3332 250.484 30.3332C251.555 30.3332 252.332 30.191 252.817 29.9066C253.319 29.6055 253.57 29.1706 253.57 28.6019C253.57 28.0666 253.378 27.6651 252.993 27.3975C252.608 27.1131 252.04 26.9709 251.287 26.9709H248V24.8131H250.986C251.672 24.8131 252.199 24.6792 252.567 24.4116C252.935 24.144 253.119 23.7676 253.119 23.2825C253.119 22.7639 252.893 22.3541 252.441 22.053C252.006 21.7519 251.287 21.6014 250.283 21.6014C249.413 21.6014 248.619 21.7101 247.9 21.9275C247.18 22.1283 246.503 22.4294 245.867 22.8308L245.014 20.8737C245.7 20.3886 246.528 20.0206 247.498 19.7697C248.485 19.5188 249.556 19.3933 250.71 19.3933C252.399 19.3933 253.696 19.7028 254.599 20.3217C255.502 20.9406 255.954 21.8188 255.954 22.9563C255.954 23.7258 255.686 24.3865 255.151 24.9385C254.632 25.4905 253.93 25.8335 253.043 25.9673V25.616C254.08 25.6829 254.9 25.9924 255.502 26.5444C256.104 27.0964 256.406 27.8408 256.406 28.7775C256.406 29.9317 255.895 30.8518 254.875 31.5376C253.855 32.2234 252.399 32.5663 250.509 32.5663ZM259.147 32.3154V19.6442H262.259V24.6123H267.98V19.6442H271.091V32.3154H267.98V27.0211H262.259V32.3154H259.147ZM280.881 32.5663C278.756 32.5663 277.092 31.9809 275.888 30.8099C274.683 29.639 274.081 28.0331 274.081 25.9924C274.081 24.6709 274.34 23.5167 274.859 22.5297C275.377 21.5428 276.097 20.7733 277.017 20.2213C277.953 19.6693 279.041 19.3933 280.279 19.3933C281.5 19.3933 282.52 19.6526 283.34 20.1711C284.159 20.6897 284.778 21.4173 285.196 22.3541C285.631 23.2908 285.849 24.3865 285.849 25.6411V26.4691H276.615V24.8131H283.616L283.189 25.1643C283.189 23.9934 282.938 23.0985 282.436 22.4796C281.951 21.8606 281.24 21.5512 280.304 21.5512C279.267 21.5512 278.464 21.9192 277.895 22.6552C277.343 23.3912 277.067 24.42 277.067 25.7415V26.0676C277.067 27.4393 277.401 28.4681 278.07 29.1539C278.756 29.823 279.718 30.1576 280.956 30.1576C281.675 30.1576 282.344 30.0656 282.963 29.8816C283.599 29.6808 284.201 29.363 284.77 28.9281L285.698 31.0358C285.096 31.5209 284.377 31.8972 283.54 32.1649C282.704 32.4325 281.817 32.5663 280.881 32.5663ZM294.669 32.5663C293.364 32.5663 292.219 32.2987 291.232 31.7634C290.261 31.2281 289.509 30.467 288.973 29.4801C288.438 28.4764 288.17 27.2888 288.17 25.9171C288.17 24.5454 288.438 23.3745 288.973 22.4043C289.525 21.4341 290.286 20.6897 291.257 20.1711C292.227 19.6526 293.364 19.3933 294.669 19.3933C295.505 19.3933 296.317 19.5271 297.103 19.7948C297.906 20.0457 298.558 20.4137 299.06 20.8988L298.107 23.0818C297.655 22.6636 297.145 22.3541 296.576 22.1534C296.024 21.9359 295.48 21.8272 294.945 21.8272C293.824 21.8272 292.946 22.1785 292.311 22.881C291.692 23.5836 291.382 24.604 291.382 25.9422C291.382 27.2804 291.692 28.3092 292.311 29.0284C292.946 29.7477 293.824 30.1074 294.945 30.1074C295.464 30.1074 295.999 30.007 296.551 29.8063C297.12 29.6055 297.638 29.2961 298.107 28.8779L299.06 31.0358C298.542 31.5209 297.881 31.8972 297.078 32.1649C296.292 32.4325 295.489 32.5663 294.669 32.5663ZM306.728 32.5663C305.624 32.5663 304.653 32.3071 303.817 31.7885C302.981 31.2532 302.328 30.4921 301.86 29.5052C301.391 28.5182 301.157 27.3389 301.157 25.9673C301.157 24.5956 301.391 23.4247 301.86 22.4545C302.328 21.4675 302.981 20.7148 303.817 20.1962C304.653 19.6609 305.624 19.3933 306.728 19.3933C307.798 19.3933 308.735 19.6609 309.538 20.1962C310.357 20.7148 310.901 21.4173 311.169 22.3039H310.893L311.169 19.6442H314.18C314.13 20.1628 314.079 20.6897 314.029 21.225C313.996 21.7603 313.979 22.2872 313.979 22.8057V32.3154H310.868L310.843 29.7059H311.144C310.876 30.5758 310.332 31.2699 309.513 31.7885C308.693 32.3071 307.765 32.5663 306.728 32.5663ZM307.606 30.1576C308.593 30.1576 309.387 29.8146 309.989 29.1288C310.592 28.4262 310.893 27.3724 310.893 25.9673C310.893 24.5622 310.592 23.5167 309.989 22.8308C309.387 22.145 308.593 21.8021 307.606 21.8021C306.619 21.8021 305.824 22.145 305.222 22.8308C304.62 23.5167 304.319 24.5622 304.319 25.9673C304.319 27.3724 304.611 28.4262 305.197 29.1288C305.799 29.8146 306.602 30.1576 307.606 30.1576Z" fill="#CACACA"/>
<path d="M68.1553 42.443V39.7666H87.2248V42.443H68.1553Z" fill="#1E1E1E"/>
<path d="M47.234 8.10271C51.6256 18.2448 46.9639 30.0266 36.8218 34.4182C26.6797 38.8098 14.8978 34.1481 10.5063 24.006C10.4836 23.9536 10.4612 23.9012 10.439 23.8487L47.1654 7.94604C47.1885 7.99811 47.2113 8.05034 47.234 8.10271Z" fill="#D62727" stroke="#D62727" stroke-width="1.02623"/>
<path d="M25.4167 50.8579C36.7515 50.9738 46.0342 41.879 46.1501 30.5442C46.1524 30.3153 46.151 30.0872 46.1459 29.86L5.12116 29.4405C5.1114 29.6675 5.10532 29.8955 5.10298 30.1245C4.98708 41.4593 14.0818 50.742 25.4167 50.8579Z" fill="#1E1E1E"/>
<path fill-rule="evenodd" clip-rule="evenodd" d="M44.083 29.8384C42.1773 31.9438 39.8017 33.6855 37.0259 34.8875C28.609 38.532 19.091 36.0972 13.3784 29.5244L44.083 29.8384Z" fill="#FFA800"/>
</svg>
