<svg width="123" height="45" viewBox="0 0 123 45" fill="none" xmlns="http://www.w3.org/2000/svg">
<path d="M49 27L55.8048 11.9611H58.1087L64.9988 27H62.2044L60.3698 22.7763L61.4791 23.5229H52.4557L53.6077 22.7763L51.7731 27H49ZM56.9354 14.9049L53.9276 22.0297L53.373 21.3684H60.5405L60.0925 22.0297L57.0208 14.9049H56.9354ZM72.5165 27V11.9611H75.2256V18.3606H77.7854L77.2308 18.7233L81.6678 11.9611H84.6969L79.7479 19.2352L78.7027 18.4673C79.6697 18.6095 80.4732 18.9437 81.1132 19.4699C81.7673 19.9818 82.3362 20.7071 82.8197 21.6457L85.4862 27H82.5211L80.4519 22.6696C80.0964 21.9159 79.6697 21.3826 79.172 21.0698C78.6885 20.7569 78.0698 20.6005 77.3161 20.6005H75.2256V27H72.5165ZM91.8776 27.2133C90.7683 27.2133 89.8084 26.9858 88.9978 26.5307C88.1872 26.0756 87.5543 25.4286 87.0992 24.5895C86.6584 23.7505 86.438 22.755 86.438 21.6031C86.438 20.4511 86.6584 19.4628 87.0992 18.6379C87.5543 17.7989 88.1872 17.1518 88.9978 16.6967C89.8084 16.2417 90.7683 16.0141 91.8776 16.0141C92.9868 16.0141 93.9467 16.2417 94.7574 16.6967C95.5822 17.1518 96.215 17.7989 96.6559 18.6379C97.111 19.4628 97.3385 20.4511 97.3385 21.6031C97.3385 22.755 97.111 23.7505 96.6559 24.5895C96.215 25.4286 95.5822 26.0756 94.7574 26.5307C93.9467 26.9858 92.9868 27.2133 91.8776 27.2133ZM91.8776 25.1655C92.7166 25.1655 93.385 24.8739 93.8827 24.2909C94.3805 23.6936 94.6294 22.7976 94.6294 21.6031C94.6294 20.4085 94.3805 19.5197 93.8827 18.9366C93.385 18.3535 92.7166 18.062 91.8776 18.062C91.0385 18.062 90.3701 18.3535 89.8724 18.9366C89.3746 19.5197 89.1258 20.4085 89.1258 21.6031C89.1258 22.7976 89.3746 23.6936 89.8724 24.2909C90.3701 24.8739 91.0385 25.1655 91.8776 25.1655ZM99.9505 31.6077V18.9153C99.9505 18.4744 99.9363 18.0264 99.9078 17.5713C99.8794 17.1163 99.8367 16.6683 99.7798 16.2274H102.361L102.596 18.4886H102.361C102.574 17.7349 103.022 17.1376 103.705 16.6967C104.402 16.2417 105.205 16.0141 106.115 16.0141C107.068 16.0141 107.9 16.2417 108.611 16.6967C109.322 17.1376 109.877 17.7776 110.275 18.6166C110.673 19.4414 110.872 20.4369 110.872 21.6031C110.872 22.7692 110.673 23.7718 110.275 24.6108C109.877 25.4499 109.322 26.097 108.611 26.552C107.9 26.9929 107.068 27.2133 106.115 27.2133C105.219 27.2133 104.43 26.9929 103.748 26.552C103.065 26.1112 102.61 25.521 102.382 24.7815H102.617V31.6077H99.9505ZM105.369 25.1655C106.222 25.1655 106.905 24.8739 107.417 24.2909C107.929 23.6936 108.185 22.7976 108.185 21.6031C108.185 20.4085 107.929 19.5197 107.417 18.9366C106.905 18.3535 106.222 18.062 105.369 18.062C104.53 18.062 103.854 18.3535 103.342 18.9366C102.83 19.5197 102.574 20.4085 102.574 21.6031C102.574 22.7976 102.83 23.6936 103.342 24.2909C103.854 24.8739 104.53 25.1655 105.369 25.1655ZM115.71 27V18.318H112.02V16.2274H122.067V18.318H118.355V27H115.71Z" fill="#1E1E1E"/>
<path d="M49.1084 34.8643V32.5889H65.3206V34.8643H49.1084Z" fill="#1E1E1E"/>
<path d="M37.1227 6.36803C40.5741 14.339 36.9103 23.5987 28.9394 27.0501C20.9684 30.5016 11.7087 26.8378 8.25726 18.8669C8.23944 18.8257 8.2218 18.7845 8.20436 18.7433L37.0687 6.24489C37.0869 6.28582 37.1048 6.32687 37.1227 6.36803Z" fill="#D62727" stroke="#D62727" stroke-width="0.806545"/>
<path d="M19.9758 39.9706C28.8842 40.0616 36.1797 32.9138 36.2708 24.0054C36.2726 23.8255 36.2715 23.6462 36.2675 23.4677L4.02494 23.138C4.01727 23.3164 4.01249 23.4956 4.01065 23.6756C3.91956 32.584 11.0674 39.8795 19.9758 39.9706Z" fill="#1E1E1E"/>
<path fill-rule="evenodd" clip-rule="evenodd" d="M34.6471 23.4509C33.1492 25.1061 31.2819 26.4753 29.0998 27.4201C22.4843 30.2847 15.0033 28.3706 10.5137 23.2041L34.6471 23.4509Z" fill="#FFA800"/>
</svg>
